# xmcd CD database file
#
# Track frame offsets:
#	150
#	24172
#	51290
#	75997
#	100657
#	124657
#	159158
#	186850
#	213595
#	230598
#	265816
#	294285
#
# Disc length: 4230 seconds
#
# Revision: 0
# Processed by: cddbd v1.5PL3 Copyright (c) Steve Scherf et al.
# Submitted via: CDex 1.51
#
DISCID=9310840c
DTITLE=Randy Porter Trio - Eight Little Feet
DYEAR=2000
DGENRE=Jazz
TTITLE0=Jig With A Pig
TTITLE1=A Little Kindness
TTITLE2=Inside Your Mind
TTITLE3=Cindy Lynn
TTITLE4=Groove Thing
TTITLE5=Do You Know What It Means To Miss New Orleans
TTITLE6=Savor
TTITLE7=Eulogy
TTITLE8=Giant Stretch
TTITLE9=Be Still
TTITLE10=Eight Little Feet
TTITLE11=First Snow
EXTD=YEAR: 2000
EXTT0=
EXTT1=
EXTT2=
EXTT3=
EXTT4=
EXTT5=
EXTT6=
EXTT7=
EXTT8=
EXTT9=
EXTT10=
EXTT11=
PLAYORDER=
